<?xml version="1.0" encoding="utf-8"?>
<!-- Generator: Adobe Illustrator 23.0.6, SVG Export Plug-In . SVG Version: 6.00 Build 0)  -->
<svg version="1.1" id="Layer_1" xmlns="http://www.w3.org/2000/svg" xmlns:xlink="http://www.w3.org/1999/xlink" x="0px" y="0px"
	 viewBox="0 0 80.9 43.1" style="enable-background:new 0 0 80.9 43.1;" xml:space="preserve">
<style type="text/css">
	.st0{fill:#8B1F1F;}
	.st1{opacity:0.8;}
</style>
<g>
	<g>
		<path class="st0" d="M72.3,38.3H57.1v-3.1h15.2C72.3,35.2,72.3,38.3,72.3,38.3z"/>
	</g>
	<g>
		<path class="st0" d="M67.4,33L67,30.1c1-0.2,1.7-0.6,2.2-1.1c0.5-0.6,0.7-1.3,0.7-2.2c0-1-0.2-1.7-0.7-2.2
			c-0.4-0.5-0.9-0.7-1.5-0.7c-0.3,0-0.7,0.1-0.9,0.3c-0.2,0.2-0.5,0.6-0.7,1.1c-0.2,0.3-0.3,1.1-0.7,2.4c-0.4,1.6-0.9,2.8-1.5,3.5
			c-0.8,0.9-1.9,1.4-3.1,1.4c-0.8,0-1.5-0.2-2.2-0.7c-0.7-0.4-1.2-1.1-1.5-1.9c-0.3-0.8-0.6-1.8-0.6-3c0-1.9,0.4-3.3,1.2-4.3
			s2-1.5,3.3-1.5l0.2,3.1c-0.8,0.2-1.4,0.4-1.7,0.8c-0.3,0.4-0.5,1.1-0.5,2c0,0.9,0.2,1.6,0.6,2.1c0.2,0.3,0.6,0.5,1,0.5
			c0.3,0,0.7-0.2,0.9-0.5c0.3-0.4,0.7-1.3,1-2.8c0.3-1.5,0.7-2.6,1.1-3.3c0.4-0.7,0.9-1.3,1.5-1.7c0.7-0.4,1.5-0.6,2.4-0.6
			c0.9,0,1.7,0.2,2.4,0.7s1.3,1.1,1.7,2c0.4,0.9,0.6,2,0.6,3.3c0,2-0.4,3.4-1.3,4.4C70.4,32.2,69.1,32.9,67.4,33z"/>
	</g>
	<g>
		<path class="st0" d="M57.1,18.1V15h8.2c1.3,0,2.1,0,2.5-0.1c0.7-0.2,1.1-0.4,1.5-1c0.4-0.5,0.6-1.1,0.6-2c0-0.9-0.2-1.5-0.6-2
			C69,9.6,68.5,9.3,68,9.2C67.5,9.1,66.6,9,65.4,9h-8.3V6h8c1.8,0,3.1,0.1,3.9,0.2c0.7,0.2,1.4,0.5,1.9,0.9c0.6,0.5,1,1.1,1.2,1.8
			c0.3,0.7,0.5,1.7,0.5,2.9c0,1.5-0.2,2.5-0.5,3.3c-0.3,0.7-0.7,1.4-1.3,1.8c-0.6,0.4-1.1,0.7-1.7,0.9c-0.9,0.2-2.2,0.3-3.8,0.3
			L57.1,18.1L57.1,18.1z"/>
	</g>
</g>
<g>
	<g>
		<g>
			<path class="st0" d="M54.5,38.3h-7.2V24.6H35.7v13.7h-7.2V6h7.2v12.4h11.6V6h7.2C54.5,6,54.5,38.3,54.5,38.3z M48.2,37.5h5.5V6.8
				h-5.5v12.4H34.9V6.8h-5.5v30.7h5.5V23.7h13.3C48.2,23.7,48.2,37.5,48.2,37.5z"/>
		</g>
	</g>
	<g class="st1">
		<g>
			<path class="st0" d="M9,5.6h11.6c2.6,0,4.6,0.2,6,0.6c1.9,0.6,3.4,1.5,4.7,2.9s2.4,3.1,3,5.1c0.7,2,1.1,4.5,1.1,7.5
				c0,2.6-0.3,4.8-1,6.7c-0.8,2.3-2,4.1-3.3,5.5c-1.1,1.1-2.6,2-4.5,2.5c-1.4,0.4-3.3,0.7-5.6,0.7H9V5.6z M15.4,11v20.8h4.7
				c1.8,0,3.1-0.1,3.8-0.3c1.1-0.2,1.9-0.7,2.6-1.3c0.7-0.7,1.2-1.6,1.6-3c0.4-1.4,0.7-3.3,0.7-5.8s-0.2-4.3-0.7-5.6
				s-1.1-2.4-1.8-3.1c-0.8-0.7-1.8-1.2-2.9-1.5c-0.9-0.2-2.6-0.3-5.2-0.3L15.4,11L15.4,11z"/>
		</g>
	</g>
	<g>
		<g>
			<path class="st0" d="M21,37.5H8.6V5.2h12c2.7,0,4.7,0.2,6.1,0.7c1.9,0.6,3.6,1.5,5,3s2.4,3.2,3.1,5.3c0.7,2,1.1,4.6,1.1,7.6
				c0,2.6-0.3,5-1,6.8c-0.8,2.4-2,4.2-3.5,5.7c-1.1,1.1-2.7,2-4.6,2.6C25.3,37.3,23.4,37.5,21,37.5z M9.5,36.7H21
				c2.3,0,4.1-0.2,5.5-0.7c1.8-0.6,3.3-1.4,4.3-2.4c1.4-1.4,2.5-3.2,3.3-5.4c0.7-1.8,1-4.1,1-6.6c0-2.9-0.3-5.4-1-7.3
				c-0.7-2-1.6-3.6-2.9-5c-1.3-1.3-2.8-2.3-4.6-2.8C25.3,6.2,23.3,6,20.8,6H9.5V36.7z M20.1,32.2H15V10.6h3.3c2.7,0,4.4,0.1,5.3,0.3
				c1.2,0.2,2.3,0.8,3.2,1.5c0.8,0.8,1.5,1.9,2,3.3c0.4,1.3,0.7,3.3,0.7,5.7s-0.2,4.5-0.7,5.9c-0.5,1.5-1.1,2.5-1.8,3.3
				c-0.7,0.7-1.6,1.1-2.8,1.4C23.3,32.1,22,32.2,20.1,32.2z M15.8,31.4h4.3c1.7,0,3-0.1,3.7-0.3c1-0.2,1.8-0.7,2.4-1.2
				c0.7-0.6,1.1-1.5,1.5-2.8c0.4-1.4,0.7-3.3,0.7-5.6s-0.2-4.2-0.7-5.4c-0.4-1.2-1-2.2-1.7-2.8c-0.7-0.7-1.6-1.1-2.8-1.4
				c-0.7-0.2-2.5-0.3-5-0.3h-2.4V31.4z"/>
		</g>
	</g>
</g>
</svg>
